<svg fill="none" height="23" viewBox="0 0 23 23" width="23" xmlns="http://www.w3.org/2000/svg"><circle cx="11.5" cy="11.5" fill="#4537de" r="11.5"/><path d="m10.9648 15.1065c.6356 0 1.3245-.1776 1.8608-.5966l.4403.4901h1.5767l-1.0938-1.2536c.4049-.5362.6606-1.3068.6606-2.294h-1.2536c0 .4758-.1172.8984-.3089 1.2571l-1.2003-1.3779.4261-.3054c.6108-.4403.9659-.9943.9659-1.67965 0-.9304-.7209-1.7152-1.8892-1.7152-1.19317 0-1.98507.81321-1.98507 1.8679 0 .64635.3125 1.18605.69247 1.66905-.7919.5433-1.32457 1.0582-1.32457 1.8998 0 1.1471.91974 2.0384 2.43257 2.0384zm1.044-1.5057c-.3054.1882-.6392.2912-.9695.2912-.6321 0-1.04045-.3906-1.04045-.9091 0-.277.18825-.5966.58945-.8878l.0426-.0284zm-1.0902-3.1321c-.2699-.3409-.4581-.64275-.4581-.9446 0-.36576.277-.67116.6996-.67471.4261-.00355.6676.29474.6676.58238 0 .3054-.1669.55753-.5291.78833z" fill="#fff"/></svg>