<svg width="125" height="176" viewBox="0 0 125 176" fill="none" xmlns="http://www.w3.org/2000/svg">
<path d="M59.1249 159.794L54.0869 153.646L47.2958 157.776L58.73 90.7441L70.5591 92.7619L59.1249 159.794Z" fill="#190D94"/>
<path d="M80.2882 168.65L73.5315 164.464L68.4427 170.569L57.5635 103.445L69.4089 101.525L80.2882 168.65Z" fill="#2B1CC1"/>
<g clip-path="url(#clip0)">
<path d="M59.6808 31.9823C60.6122 32.7602 61.7873 33.1862 63.0008 33.1862C64.2143 33.1862 65.3893 32.7602 66.3208 31.9823C66.7156 31.6018 67.1933 31.3182 67.7162 31.1536C68.2392 30.9891 68.7932 30.9481 69.3347 31.034C69.8762 31.1198 70.3904 31.3301 70.8368 31.6484C71.2832 31.9667 71.6497 32.3842 71.9074 32.8681C72.554 33.8939 73.5396 34.6608 74.6929 35.0355C75.8461 35.4102 77.0942 35.3691 78.2202 34.9192C78.7128 34.6818 79.2536 34.5613 79.8004 34.5671C80.3472 34.573 80.8853 34.705 81.3726 34.953C81.86 35.2009 82.2836 35.5581 82.6103 35.9966C82.937 36.4351 83.158 36.9431 83.2562 37.4811C83.554 38.6569 84.2544 39.6912 85.2356 40.4042C86.2169 41.1171 87.417 41.4637 88.6273 41.3837C89.1684 41.3114 89.7188 41.3648 90.2359 41.5398C90.753 41.7148 91.2228 42.0067 91.6088 42.3927C91.9948 42.7787 92.2866 43.2484 92.4616 43.7655C92.6365 44.2826 92.69 44.833 92.6177 45.3741C92.5377 46.5844 92.8842 47.7845 93.5972 48.7658C94.3102 49.747 95.3445 50.4474 96.5203 50.7452C97.058 50.8422 97.566 51.0623 98.0046 51.3882C98.4431 51.714 98.8004 52.1369 99.0485 52.6237C99.2965 53.1105 99.4286 53.6482 99.4345 54.1945C99.4403 54.7409 99.3198 55.2812 99.0822 55.7732C98.6318 56.9004 98.5904 58.1497 98.965 59.3044C99.3397 60.459 100.107 61.446 101.133 62.094C101.617 62.3517 102.035 62.7182 102.353 63.1646C102.671 63.611 102.882 64.1252 102.967 64.6667C103.053 65.2082 103.012 65.7622 102.848 66.2852C102.683 66.8081 102.4 67.2858 102.019 67.6806C101.241 68.6121 100.815 69.7871 100.815 71.0006C100.815 72.2141 101.241 73.3892 102.019 74.3207C102.4 74.7154 102.683 75.1931 102.848 75.716C103.012 76.239 103.053 76.7931 102.967 77.3346C102.882 77.8761 102.671 78.3902 102.353 78.8366C102.035 79.283 101.617 79.6495 101.133 79.9072C100.107 80.5539 99.3406 81.5394 98.9659 82.6927C98.5912 83.846 98.6323 85.094 99.0822 86.2201C99.3196 86.7127 99.4401 87.2534 99.4342 87.8002C99.4284 88.347 99.2963 88.8851 99.0484 89.3725C98.8005 89.8599 98.4433 90.2834 98.0048 90.6101C97.5663 90.9368 97.0583 91.1579 96.5203 91.256C95.3445 91.5538 94.3102 92.2542 93.5972 93.2355C92.8842 94.2167 92.5377 95.4168 92.6177 96.6271C92.69 97.1682 92.6365 97.7186 92.4616 98.2357C92.2866 98.7528 91.9948 99.2226 91.6088 99.6086C91.2228 99.9946 90.753 100.286 90.2359 100.461C89.7188 100.636 89.1684 100.69 88.6273 100.618C87.4162 100.539 86.216 100.888 85.235 101.602C84.2539 102.316 83.5538 103.352 83.2562 104.528C83.1574 105.066 82.9355 105.575 82.6078 106.013C82.2802 106.452 81.8556 106.808 81.3673 107.055C80.879 107.303 80.3402 107.434 79.7929 107.438C79.2456 107.443 78.7047 107.321 78.2123 107.082C77.0862 106.632 75.8381 106.591 74.6849 106.966C73.5316 107.34 72.5461 108.107 71.8994 109.133C71.6417 109.617 71.2753 110.035 70.8288 110.353C70.3824 110.671 69.8682 110.881 69.3268 110.967C68.7853 111.053 68.2312 111.012 67.7082 110.848C67.1853 110.683 66.7076 110.399 66.3128 110.019C65.3814 109.241 64.2064 108.815 62.9928 108.815C61.7793 108.815 60.6042 109.241 59.6728 110.019C59.278 110.399 58.8004 110.683 58.2774 110.848C57.7544 111.012 57.2004 111.053 56.6589 110.967C56.1174 110.881 55.6032 110.671 55.1568 110.353C54.7104 110.035 54.3439 109.617 54.0862 109.133C53.4396 108.107 52.454 107.34 51.3008 106.966C50.1475 106.591 48.8994 106.632 47.7733 107.082C47.2807 107.319 46.74 107.44 46.1932 107.434C45.6464 107.428 45.1083 107.296 44.6209 107.048C44.1336 106.8 43.71 106.443 43.3833 106.005C43.0566 105.566 42.8356 105.058 42.7374 104.52C42.4398 103.344 41.7397 102.308 40.7587 101.594C39.7776 100.88 38.5774 100.531 37.3663 100.61C36.8252 100.682 36.2748 100.628 35.7577 100.453C35.2406 100.278 34.7708 99.9866 34.3848 99.6006C33.9988 99.2146 33.707 98.7448 33.532 98.2277C33.357 97.7107 33.3036 97.1602 33.3759 96.6191C33.4559 95.4088 33.1093 94.2087 32.3963 93.2275C31.6834 92.2462 30.6491 91.5458 29.4733 91.248C28.9353 91.1499 28.4273 90.9288 27.9888 90.6021C27.5503 90.2754 27.1931 89.8519 26.9452 89.3645C26.6972 88.8771 26.5652 88.3391 26.5593 87.7923C26.5535 87.2455 26.674 86.7047 26.9114 86.2121C27.3612 85.086 27.4024 83.838 27.0277 82.6847C26.653 81.5315 25.8861 80.5459 24.8603 79.8993C24.3764 79.6416 23.9589 79.2751 23.6406 78.8287C23.3224 78.3823 23.112 77.8681 23.0262 77.3266C22.9403 76.7851 22.9812 76.2311 23.1458 75.7081C23.3103 75.1851 23.594 74.7074 23.9745 74.3127C24.7523 73.3812 25.1784 72.2062 25.1784 70.9927C25.1784 69.7791 24.7523 68.6041 23.9745 67.6726C23.594 67.2778 23.3103 66.8002 23.1458 66.2772C22.9812 65.7542 22.9403 65.2002 23.0262 64.6587C23.112 64.1172 23.3224 63.6031 23.6406 63.1566C23.9589 62.7102 24.3764 62.3437 24.8603 62.086C25.8868 61.438 26.6539 60.451 27.0285 59.2964C27.4032 58.1418 27.3618 56.8924 26.9114 55.7652C26.6738 55.2732 26.5533 54.7329 26.5591 54.1865C26.565 53.6402 26.6971 53.1026 26.9451 52.6157C27.1932 52.1289 27.5504 51.706 27.989 51.3802C28.4276 51.0543 28.9356 50.8343 29.4733 50.7373C30.6491 50.4395 31.6834 49.7391 32.3963 48.7578C33.1093 47.7765 33.4559 46.5764 33.3759 45.3661C33.3036 44.8251 33.357 44.2746 33.532 43.7575C33.707 43.2405 33.9988 42.7707 34.3848 42.3847C34.7708 41.9987 35.2406 41.7069 35.7577 41.5319C36.2748 41.3569 36.8252 41.3034 37.3663 41.3757C38.5766 41.4558 39.7767 41.1092 40.758 40.3962C41.7392 39.6832 42.4396 38.6489 42.7374 37.4731C42.8356 36.9352 43.0566 36.4271 43.3833 35.9886C43.71 35.5501 44.1336 35.1929 44.6209 34.945C45.1083 34.6971 45.6464 34.565 46.1932 34.5592C46.74 34.5533 47.2807 34.6738 47.7733 34.9112C48.8994 35.3611 50.1475 35.4022 51.3008 35.0275C52.454 34.6528 53.4396 33.886 54.0862 32.8602C54.3444 32.3754 54.7117 31.9574 55.1591 31.6389C55.6065 31.3205 56.1219 31.1104 56.6644 31.0253C57.207 30.9401 57.7619 30.9823 58.2854 31.1484C58.8088 31.3144 59.2865 31.5999 59.6808 31.9823Z" fill="#0A0167"/>
<circle cx="63" cy="71" r="32.5" stroke="#2B1CC1"/>
<circle cx="63" cy="71" r="28.5" stroke="#2B1CC1"/>
</g>
<defs>
<clipPath id="clip0">
<rect width="80" height="80" fill="white" transform="translate(23.0002 31)"/>
</clipPath>
</defs>
</svg>
